<mxfile host="app.diagrams.net" modified="2023-05-12T23:21:59.577Z" agent="Mozilla/5.0 (X11; Linux x86_64) AppleWebKit/537.36 (KHTML, like Gecko) Chrome/111.0.0.0 Safari/537.36" etag="9cE7tBehta1uKWBx-sDZ" version="21.3.0" type="device">
  <diagram name="Page-1" id="58cdce13-f638-feb5-8d6f-7d28b1aa9fa0">
    <mxGraphModel dx="1434" dy="789" grid="0" gridSize="10" guides="1" tooltips="1" connect="1" arrows="1" fold="1" page="0" pageScale="1" pageWidth="1100" pageHeight="850" background="none" math="0" shadow="1">
      <root>
        <mxCell id="0" />
        <mxCell id="1" parent="0" />
        <mxCell id="RdhTnnGiD03BrQ_g1ol8-9" style="edgeStyle=orthogonalEdgeStyle;orthogonalLoop=1;jettySize=auto;html=1;entryX=0;entryY=0.5;entryDx=0;entryDy=0;curved=1;" edge="1" parent="1" source="RdhTnnGiD03BrQ_g1ol8-1" target="RdhTnnGiD03BrQ_g1ol8-4">
          <mxGeometry relative="1" as="geometry">
            <Array as="points">
              <mxPoint x="210" y="60" />
            </Array>
          </mxGeometry>
        </mxCell>
        <mxCell id="RdhTnnGiD03BrQ_g1ol8-1" value="q0" style="ellipse;whiteSpace=wrap;html=1;aspect=fixed;fillColor=#60a917;fontColor=#ffffff;strokeColor=#2D7600;gradientColor=#FF0B03;gradientDirection=east;" vertex="1" parent="1">
          <mxGeometry x="170" y="140" width="80" height="80" as="geometry" />
        </mxCell>
        <mxCell id="RdhTnnGiD03BrQ_g1ol8-44" style="edgeStyle=orthogonalEdgeStyle;orthogonalLoop=1;jettySize=auto;html=1;entryX=0.5;entryY=1;entryDx=0;entryDy=0;curved=1;" edge="1" parent="1" source="RdhTnnGiD03BrQ_g1ol8-2" target="RdhTnnGiD03BrQ_g1ol8-6">
          <mxGeometry relative="1" as="geometry" />
        </mxCell>
        <mxCell id="RdhTnnGiD03BrQ_g1ol8-2" value="q4" style="ellipse;whiteSpace=wrap;html=1;aspect=fixed;direction=south;fillColor=#00E51F;strokeColor=#B20000;fontColor=#ffffff;gradientColor=#FF0303;" vertex="1" parent="1">
          <mxGeometry x="330" y="385" width="80" height="80" as="geometry" />
        </mxCell>
        <mxCell id="RdhTnnGiD03BrQ_g1ol8-12" style="edgeStyle=orthogonalEdgeStyle;orthogonalLoop=1;jettySize=auto;html=1;entryX=0.5;entryY=0;entryDx=0;entryDy=0;curved=1;" edge="1" parent="1" source="RdhTnnGiD03BrQ_g1ol8-3" target="RdhTnnGiD03BrQ_g1ol8-5">
          <mxGeometry relative="1" as="geometry" />
        </mxCell>
        <mxCell id="RdhTnnGiD03BrQ_g1ol8-3" value="q2" style="ellipse;whiteSpace=wrap;html=1;aspect=fixed;fillColor=#DEE346;fontColor=#000000;strokeColor=#B09500;gradientColor=#FF0303;gradientDirection=east;" vertex="1" parent="1">
          <mxGeometry x="480" y="140" width="80" height="80" as="geometry" />
        </mxCell>
        <mxCell id="RdhTnnGiD03BrQ_g1ol8-10" style="edgeStyle=orthogonalEdgeStyle;orthogonalLoop=1;jettySize=auto;html=1;entryX=0.5;entryY=0;entryDx=0;entryDy=0;strokeColor=default;curved=1;" edge="1" parent="1" source="RdhTnnGiD03BrQ_g1ol8-4" target="RdhTnnGiD03BrQ_g1ol8-3">
          <mxGeometry relative="1" as="geometry" />
        </mxCell>
        <mxCell id="RdhTnnGiD03BrQ_g1ol8-4" value="q1" style="ellipse;whiteSpace=wrap;html=1;aspect=fixed;fillColor=#e51400;strokeColor=#B20000;fontColor=#ffffff;gradientColor=default;gradientDirection=west;" vertex="1" parent="1">
          <mxGeometry x="320" y="20" width="80" height="80" as="geometry" />
        </mxCell>
        <mxCell id="RdhTnnGiD03BrQ_g1ol8-43" style="edgeStyle=orthogonalEdgeStyle;orthogonalLoop=1;jettySize=auto;html=1;entryX=0;entryY=0.5;entryDx=0;entryDy=0;curved=1;" edge="1" parent="1" source="RdhTnnGiD03BrQ_g1ol8-5" target="RdhTnnGiD03BrQ_g1ol8-2">
          <mxGeometry relative="1" as="geometry" />
        </mxCell>
        <mxCell id="RdhTnnGiD03BrQ_g1ol8-5" value="q3" style="ellipse;whiteSpace=wrap;html=1;aspect=fixed;fillColor=#e51400;strokeColor=#B20000;fontColor=#ffffff;gradientColor=default;gradientDirection=west;" vertex="1" parent="1">
          <mxGeometry x="480" y="290" width="80" height="80" as="geometry" />
        </mxCell>
        <mxCell id="RdhTnnGiD03BrQ_g1ol8-30" style="edgeStyle=orthogonalEdgeStyle;rounded=0;orthogonalLoop=1;jettySize=auto;html=1;entryX=0.5;entryY=1;entryDx=0;entryDy=0;" edge="1" parent="1" source="RdhTnnGiD03BrQ_g1ol8-6" target="RdhTnnGiD03BrQ_g1ol8-1">
          <mxGeometry relative="1" as="geometry" />
        </mxCell>
        <mxCell id="RdhTnnGiD03BrQ_g1ol8-6" value="q5" style="ellipse;whiteSpace=wrap;html=1;aspect=fixed;fillColor=#090101;strokeColor=#2D7600;fontColor=#ffffff;gradientColor=none;gradientDirection=west;fillStyle=auto;" vertex="1" parent="1">
          <mxGeometry x="170" y="290" width="80" height="80" as="geometry" />
        </mxCell>
        <mxCell id="RdhTnnGiD03BrQ_g1ol8-17" value="q0 = led verde veículo ligado/led pedestre vermelho ligado" style="text;html=1;align=center;verticalAlign=middle;resizable=0;points=[];autosize=1;strokeColor=none;fillColor=none;" vertex="1" parent="1">
          <mxGeometry x="711" y="20" width="330" height="30" as="geometry" />
        </mxCell>
        <mxCell id="RdhTnnGiD03BrQ_g1ol8-18" value="q1 = led verde veículo desligado" style="text;html=1;align=center;verticalAlign=middle;resizable=0;points=[];autosize=1;strokeColor=none;fillColor=none;" vertex="1" parent="1">
          <mxGeometry x="785" y="50" width="200" height="30" as="geometry" />
        </mxCell>
        <mxCell id="RdhTnnGiD03BrQ_g1ol8-19" value="q2 = led amarelo veículo ligado" style="text;html=1;align=center;verticalAlign=middle;resizable=0;points=[];autosize=1;strokeColor=none;fillColor=none;" vertex="1" parent="1">
          <mxGeometry x="790" y="80" width="190" height="30" as="geometry" />
        </mxCell>
        <mxCell id="RdhTnnGiD03BrQ_g1ol8-20" value="q3 = led amarelo veículo desligado/led pedestre vermelho desligado" style="text;html=1;align=center;verticalAlign=middle;resizable=0;points=[];autosize=1;strokeColor=none;fillColor=none;" vertex="1" parent="1">
          <mxGeometry x="700" y="110" width="390" height="30" as="geometry" />
        </mxCell>
        <mxCell id="RdhTnnGiD03BrQ_g1ol8-21" value="q4 = led vermelho veículo ligado/led pedestre verde ligado" style="text;html=1;align=center;verticalAlign=middle;resizable=0;points=[];autosize=1;strokeColor=none;fillColor=none;" vertex="1" parent="1">
          <mxGeometry x="710" y="140" width="330" height="30" as="geometry" />
        </mxCell>
        <mxCell id="RdhTnnGiD03BrQ_g1ol8-22" value="q5 = led vermelho veículo desligado/led pedestre verde desligado" style="text;html=1;align=center;verticalAlign=middle;resizable=0;points=[];autosize=1;strokeColor=none;fillColor=none;" vertex="1" parent="1">
          <mxGeometry x="700" y="170" width="370" height="30" as="geometry" />
        </mxCell>
        <mxCell id="RdhTnnGiD03BrQ_g1ol8-23" value="3s" style="text;html=1;align=center;verticalAlign=middle;resizable=0;points=[];autosize=1;strokeColor=none;fillColor=none;" vertex="1" parent="1">
          <mxGeometry x="260" y="165" width="40" height="30" as="geometry" />
        </mxCell>
        <mxCell id="RdhTnnGiD03BrQ_g1ol8-26" value="1s" style="text;html=1;align=center;verticalAlign=middle;resizable=0;points=[];autosize=1;strokeColor=none;fillColor=none;" vertex="1" parent="1">
          <mxGeometry x="570" y="165" width="40" height="30" as="geometry" />
        </mxCell>
        <mxCell id="RdhTnnGiD03BrQ_g1ol8-27" value="3s" style="text;html=1;align=center;verticalAlign=middle;resizable=0;points=[];autosize=1;strokeColor=none;fillColor=none;" vertex="1" parent="1">
          <mxGeometry x="420" y="410" width="40" height="30" as="geometry" />
        </mxCell>
        <mxCell id="RdhTnnGiD03BrQ_g1ol8-34" style="edgeStyle=orthogonalEdgeStyle;orthogonalLoop=1;jettySize=auto;html=1;curved=1;" edge="1" parent="1" source="RdhTnnGiD03BrQ_g1ol8-1" target="RdhTnnGiD03BrQ_g1ol8-1">
          <mxGeometry relative="1" as="geometry" />
        </mxCell>
        <mxCell id="RdhTnnGiD03BrQ_g1ol8-39" style="edgeStyle=orthogonalEdgeStyle;orthogonalLoop=1;jettySize=auto;html=1;curved=1;" edge="1" parent="1" source="RdhTnnGiD03BrQ_g1ol8-3" target="RdhTnnGiD03BrQ_g1ol8-3">
          <mxGeometry relative="1" as="geometry" />
        </mxCell>
        <mxCell id="RdhTnnGiD03BrQ_g1ol8-42" style="edgeStyle=orthogonalEdgeStyle;orthogonalLoop=1;jettySize=auto;html=1;curved=1;" edge="1" parent="1" source="RdhTnnGiD03BrQ_g1ol8-2" target="RdhTnnGiD03BrQ_g1ol8-2">
          <mxGeometry relative="1" as="geometry" />
        </mxCell>
        <mxCell id="RdhTnnGiD03BrQ_g1ol8-45" value="" style="endArrow=classic;html=1;rounded=0;entryX=0;entryY=0.5;entryDx=0;entryDy=0;" edge="1" parent="1" target="RdhTnnGiD03BrQ_g1ol8-1">
          <mxGeometry width="50" height="50" relative="1" as="geometry">
            <mxPoint x="80" y="180" as="sourcePoint" />
            <mxPoint x="570" y="120" as="targetPoint" />
          </mxGeometry>
        </mxCell>
      </root>
    </mxGraphModel>
  </diagram>
</mxfile>
